<svg width="316" height="60" viewBox="0 0 316 60" fill="none" xmlns="http://www.w3.org/2000/svg">
<path fill-rule="evenodd" clip-rule="evenodd" d="M5.7382 10.6481L23.6261 10.6543C33.4642 10.6543 41.5639 10.673 41.62 10.698C41.7072 10.7353 41.5203 11.103 39.2399 15.1346H35.1589C31.3271 15.1346 31.0779 15.1408 31.0405 15.2405C31.0218 15.3028 30.5358 16.1378 29.9626 17.0974C29.3894 18.057 28.5856 19.4029 28.1806 20.0883C27.7757 20.7738 26.9968 22.0885 26.4486 23.017C25.9003 23.9454 24.8411 25.7213 24.0996 26.9738C23.352 28.2263 22.5856 29.5286 22.3862 29.8713C22.1869 30.214 21.6822 31.0677 21.2647 31.7718C20.8411 32.4759 20.056 33.8032 19.5077 34.7316C18.9594 35.66 17.9127 37.4235 17.1837 38.6572C16.4548 39.891 15.1463 42.1093 14.2741 43.5799C13.4018 45.0504 12.3239 46.8699 11.8815 47.6177C11.4392 48.3592 11.0591 48.9698 11.0279 48.9698C11.003 48.9698 10.5793 48.6271 10.0809 48.2159C9.58245 47.7984 8.62918 46.9073 7.96251 46.2344C7.28961 45.5614 6.43602 44.6329 6.06842 44.1718C5.69459 43.7107 5.10892 42.8944 4.75377 42.3648C4.40486 41.8351 3.92511 41.0625 3.68835 40.6512C3.45782 40.24 3.05906 39.4673 2.80361 38.9376C2.55439 38.408 2.1681 37.5232 1.95003 36.9748C1.73196 36.4265 1.43912 35.6102 1.29582 35.1678C1.15875 34.7254 0.946907 33.9776 0.828527 33.5165C0.716377 33.0554 0.560613 32.3825 0.492077 32.021C0.423541 31.6596 0.323852 31.0739 0.274007 30.7125C0.224163 30.3511 0.149396 29.7342 0.118244 29.3416C0.0808603 28.9491 0.0372466 28.1889 0.0123244 27.6592C-0.0125978 27.1109 0.00609385 26.1949 0.0434772 25.5406C0.087091 24.905 0.155627 24.0514 0.205471 23.6401C0.255316 23.2288 0.367466 22.4998 0.454693 22.02C0.541921 21.5402 0.722607 20.7301 0.859679 20.213C0.990521 19.702 1.1899 19.0103 1.29582 18.6863C1.40174 18.3623 1.62604 17.7454 1.80049 17.3155C1.96872 16.8855 2.3114 16.1191 2.56062 15.6019C2.81607 15.0909 3.2086 14.3432 3.44536 13.9506C3.67589 13.5581 4.08087 12.9287 4.33633 12.5486C4.59801 12.1685 5.01546 11.589 5.27091 11.2588L5.7382 10.6481ZM6.67901 15.4897C6.5544 15.6891 6.28026 16.144 6.07465 16.5054C5.86904 16.8606 5.55129 17.465 5.37683 17.8389C5.19614 18.219 4.90954 18.9044 4.73508 19.3718C4.56063 19.8329 4.31764 20.5619 4.19302 20.9856C4.07464 21.4156 3.87527 22.2443 3.75689 22.8301C3.64474 23.4096 3.50143 24.3068 3.43913 24.8178C3.37267 25.4451 3.33944 26.2447 3.33944 27.2168C3.33944 28.1639 3.37682 29.0052 3.44536 29.5847C3.50143 30.0831 3.60112 30.8122 3.66966 31.211C3.73819 31.6036 3.89396 32.3014 4.01234 32.7626C4.12449 33.2299 4.3301 33.9278 4.46717 34.3266C4.59801 34.7191 4.79739 35.2799 4.90954 35.5666C5.02169 35.8594 5.35814 36.6072 5.6572 37.2241C5.9625 37.8347 6.43602 38.7196 6.7164 39.1807C6.99677 39.648 7.42045 40.2898 7.65098 40.6201C7.88151 40.9441 8.29273 41.48 8.56687 41.8165C8.83479 42.1529 9.07155 42.4022 9.09024 42.3773C9.11516 42.3523 9.66968 41.4177 10.3363 40.3023C10.9968 39.1931 12.0061 37.492 12.5793 36.5324C13.1526 35.579 14.2491 33.7222 15.0217 32.4198C15.7881 31.1238 16.6853 29.6033 17.0093 29.055C17.3333 28.5129 18.3239 26.8429 19.2149 25.3475C20.0996 23.8582 21.0529 22.2443 21.327 21.7645C21.6074 21.291 22.2865 20.1382 22.8348 19.2097C23.3831 18.2875 24.1121 17.0538 24.4548 16.468C24.8037 15.8885 25.1152 15.3464 25.1526 15.2716L25.2211 15.1283H6.90955L6.67901 15.4897ZM27.8691 -0.000976562C28.8909 -0.000976562 29.8816 0.0301793 30.5483 0.0924911C31.1339 0.14234 31.9439 0.242039 32.3551 0.304351C32.7663 0.372894 33.3832 0.485055 33.7258 0.553598C34.0685 0.622141 34.6168 0.752996 34.9408 0.840232C35.2648 0.927469 35.9003 1.10817 36.3427 1.25149C36.7913 1.38858 37.5888 1.68144 38.1184 1.8933C38.648 2.10516 39.4642 2.46657 39.9252 2.69089C40.3863 2.91521 41.0779 3.27039 41.4517 3.48225C41.8318 3.69411 42.5857 4.16145 43.134 4.52286C43.6823 4.88427 44.4548 5.42638 44.8474 5.72547C45.2399 6.0308 45.8879 6.54799 46.2804 6.8907C46.6729 7.22719 47.4019 7.90639 47.9003 8.40488C48.3988 8.90337 49.0842 9.63242 49.4206 10.025C49.7571 10.4176 50.268 11.0469 50.5483 11.427C50.8287 11.8071 51.2711 12.4365 51.5328 12.829C51.7944 13.2216 52.1932 13.8696 52.4175 14.2622C52.648 14.6548 53.0406 15.4025 53.2898 15.9134C53.5452 16.4306 53.9128 17.2718 54.1184 17.7828C54.324 18.3 54.592 19.0228 54.7103 19.4029C54.8349 19.783 55.0094 20.3812 55.0966 20.7426C55.1901 21.104 55.3209 21.6648 55.3832 21.9888C55.4518 22.3129 55.5639 22.9048 55.6325 23.2974C55.6948 23.69 55.7944 24.5187 55.8505 25.1356C55.9315 25.9893 55.944 26.6872 55.9191 28.0642C55.9004 29.2108 55.8505 30.1579 55.7882 30.6502C55.7321 31.0801 55.6138 31.8092 55.5265 32.2703C55.4455 32.7314 55.2773 33.5165 55.1527 34.015C55.0281 34.5135 54.7913 35.3423 54.6169 35.8532C54.4424 36.3704 54.1371 37.1742 53.9378 37.6478C53.7384 38.1151 53.377 38.894 53.134 39.3738C52.7539 40.134 52.6854 40.2337 52.5982 40.1714C52.5483 40.1278 52.1433 39.4611 51.7072 38.6884C51.2648 37.9157 50.8162 37.1181 50.4985 36.5386L50.7041 36.0401C50.8162 35.766 51.0343 35.174 51.1838 34.7316C51.3334 34.2892 51.539 33.6287 51.6387 33.2673C51.7384 32.9059 51.8941 32.2641 51.9751 31.8341C52.0624 31.4042 52.1807 30.7063 52.2368 30.2763C52.2866 29.8464 52.349 28.8494 52.3677 28.0642C52.3863 27.2168 52.3739 26.251 52.3303 25.6964C52.2929 25.1854 52.1932 24.3442 52.106 23.827C52.0187 23.3161 51.8505 22.5123 51.7321 22.0512C51.62 21.59 51.4455 20.9732 51.3583 20.6803C51.2648 20.3874 50.9845 19.6459 50.7352 19.029C50.486 18.4122 50.081 17.5149 49.8318 17.0351C49.5826 16.5553 49.1901 15.8387 48.9533 15.4461C48.7103 15.0535 48.2742 14.3868 47.9751 13.9693C47.676 13.5518 47.1963 12.9038 46.9035 12.5361C46.6106 12.1685 45.9003 11.3834 45.3147 10.8039C44.7352 10.2182 43.9128 9.46418 43.4891 9.12147C43.0717 8.77875 42.3988 8.2678 41.9938 7.98739C41.595 7.70699 40.9844 7.30819 40.6418 7.10257C40.2991 6.89694 39.5826 6.5106 39.053 6.23643C38.5234 5.95603 37.6386 5.551 37.0903 5.33291C36.542 5.10859 35.7695 4.82195 35.3769 4.69733C34.9844 4.57271 34.2118 4.36085 33.6635 4.22999C33.1152 4.09914 32.2866 3.9309 31.8255 3.86235C31.3645 3.79381 30.5109 3.70034 29.9252 3.66296C29.3021 3.61934 28.2741 3.60688 27.433 3.62557C26.6479 3.64426 25.7507 3.69411 25.4392 3.72527C25.1339 3.76265 24.4735 3.86858 23.975 3.95582C23.4766 4.04306 22.7476 4.19884 22.3551 4.29854C21.9626 4.39823 21.109 4.65994 20.4548 4.88427C19.8068 5.10236 18.8535 5.46377 18.3364 5.69432C17.8255 5.91864 17.0591 6.28628 15.8753 6.9094H12.8099C9.91267 6.91563 9.74445 6.9094 9.83167 6.8097C9.88152 6.74739 10.193 6.48568 10.517 6.2302C10.8473 5.96849 11.4018 5.54477 11.7631 5.28929C12.1245 5.03381 12.8784 4.52909 13.4454 4.18014C14.0124 3.82497 15.0653 3.24547 15.7819 2.89029C16.5046 2.53511 17.4267 2.11139 17.8379 1.94938C18.2491 1.7936 19.0467 1.50697 19.6136 1.32003C20.1806 1.1331 21.1464 0.858926 21.7632 0.709378C22.38 0.559829 23.2647 0.379125 23.7258 0.304351C24.1869 0.235808 24.947 0.136109 25.4081 0.0924911C25.8691 0.0426417 26.9782 0.00525461 27.8691 -0.000976562ZM35.1339 17.6083C35.1589 17.6333 35.514 18.2626 35.919 18.9979C36.3302 19.7332 37.0156 20.9669 37.4455 21.7396C37.8754 22.5123 38.6231 23.8707 39.1153 24.7617C39.6075 25.6528 40.6854 27.6031 41.514 29.0924C42.3427 30.5816 43.6636 32.9557 44.4424 34.3577C45.2212 35.7597 46.162 37.4422 46.5296 38.0964C46.8972 38.7507 47.7321 40.2337 48.3801 41.399C49.0281 42.5642 49.6823 43.7045 50.081 44.3588L49.6075 44.9009C49.3458 45.2062 48.5359 46.0287 47.8131 46.7453C47.0904 47.4557 46.4611 48.0352 46.4237 48.0352C46.3801 48.0352 45.863 47.1753 45.2711 46.116C44.6854 45.0629 43.8879 43.6546 43.5078 42.9879C43.1277 42.3212 42.6916 41.5423 42.2617 40.7447L32.8349 40.7135L33.595 39.405C34.0187 38.6884 34.6853 37.5356 35.8006 35.604L39.3645 35.5728L38.891 34.7441C38.6293 34.2954 38.0062 33.1925 37.5078 32.3014C37.0093 31.4104 36.5109 30.5131 36.3925 30.3075C36.2804 30.1018 35.9315 29.4663 35.0654 27.8462L34.704 28.4817C34.5047 28.8369 33.8193 30.0208 33.1838 31.1175C32.5483 32.2142 31.2461 34.445 30.299 36.0713C29.352 37.6976 27.919 40.1527 27.1277 41.5236C26.3302 42.8944 25.0965 45.013 24.38 46.2281C23.6697 47.4432 22.7476 49.0135 22.3426 49.7176C21.9314 50.4217 21.3831 51.3564 21.1214 51.805C20.8598 52.2474 20.5046 52.8643 20.3239 53.1759C20.1432 53.4874 19.9688 53.7429 19.9314 53.7492C19.894 53.7616 18.8473 53.3441 17.6074 52.8269C16.3613 52.3098 15.327 51.8673 15.2959 51.8486C15.2709 51.8237 15.5513 51.2878 15.9189 50.6523C16.2803 50.0167 17.327 48.2096 18.2429 46.6331C19.1588 45.0567 20.3613 42.9817 20.9221 42.0221C21.4828 41.0625 22.8224 38.7632 23.9003 36.9125C24.9781 35.0619 26.38 32.6504 27.0155 31.5537C27.6511 30.457 28.7289 28.5939 29.4143 27.41C30.0997 26.226 30.9221 24.7991 31.2523 24.2321C31.5763 23.665 32.5607 21.9577 33.433 20.4311C34.3053 18.9044 35.0343 17.6333 35.0529 17.6083C35.0779 17.5772 35.109 17.5772 35.1339 17.6083Z" fill="#115E59"/>
<path d="M92.9269 46.4019H85.3158V14.2357H73.5578L74.468 9.23824H104.963L104.053 14.2357H92.9269V46.4019Z" fill="#115E59"/>
<path d="M120.211 42.4699C119.739 42.8758 119.182 43.3409 118.542 43.8652C117.918 44.3725 117.227 44.8545 116.468 45.3111C115.71 45.7508 114.892 46.1229 114.016 46.4273C113.139 46.7486 112.22 46.9093 111.259 46.9093C110.197 46.9093 109.228 46.7063 108.351 46.3005C107.492 45.8946 106.758 45.3534 106.152 44.6769C105.545 43.9835 105.073 43.1802 104.736 42.267C104.415 41.3538 104.255 40.3982 104.255 39.4004C104.255 38.1997 104.516 37.0497 105.039 35.9504C105.562 34.8343 106.388 33.8534 107.517 33.0078C108.663 32.1622 110.147 31.4942 111.967 31.0037C113.788 30.4964 115.996 30.2427 118.592 30.2427H120.008V28.4162C120.008 26.9787 119.553 25.871 118.643 25.0931C117.749 24.3151 116.561 23.9261 115.078 23.9261C114.471 23.9261 113.822 24.0022 113.131 24.1545C112.439 24.2897 111.748 24.4927 111.057 24.7633C110.383 25.017 109.717 25.3214 109.059 25.6765C108.419 26.0147 107.829 26.3868 107.289 26.7927L106.834 26.539L105.494 21.7445C107.601 20.7129 109.574 20.0026 111.411 19.6136C113.265 19.2077 115.044 19.0048 116.746 19.0048C118.331 19.0048 119.781 19.1655 121.096 19.4868C122.427 19.7912 123.557 20.2816 124.484 20.9581C125.428 21.6177 126.161 22.4802 126.684 23.5456C127.206 24.6111 127.468 25.8964 127.468 27.4015V39.0199C127.468 39.3074 127.485 39.6034 127.518 39.9078C127.569 40.2122 127.662 40.4913 127.796 40.7449C127.931 40.9986 128.117 41.21 128.353 41.3791C128.589 41.5313 128.901 41.6074 129.288 41.6074C129.524 41.6074 129.786 41.5821 130.072 41.5313C130.359 41.4806 130.662 41.3876 130.983 41.2523V44.6516C129.971 45.3619 128.96 45.9199 127.948 46.3258C126.954 46.7148 125.984 46.9093 125.04 46.9093C124.366 46.9093 123.776 46.7909 123.27 46.5541C122.765 46.3343 122.318 46.0299 121.93 45.6409C121.542 45.2519 121.205 44.7869 120.919 44.2457C120.649 43.7045 120.413 43.1126 120.211 42.4699ZM120.008 33.2868H118.719C117.168 33.2868 115.904 33.3968 114.926 33.6166C113.965 33.8365 113.215 34.1493 112.675 34.5552C112.136 34.9442 111.765 35.4093 111.563 35.9504C111.36 36.4916 111.259 37.0751 111.259 37.7008C111.259 38.3604 111.352 38.9354 111.537 39.4258C111.723 39.9163 111.976 40.3221 112.296 40.6435C112.633 40.9648 113.021 41.21 113.459 41.3791C113.898 41.5313 114.37 41.6074 114.875 41.6074C115.6 41.6074 116.376 41.4383 117.202 41.1001C118.044 40.7618 118.98 40.1192 120.008 39.1721V33.2868Z" fill="#115E59"/>
<path d="M135.787 39.9078L136.242 39.6288C137.607 40.3729 139.023 40.9563 140.49 41.3791C141.974 41.785 143.322 41.9879 144.536 41.9879C146.002 41.9879 147.115 41.7005 147.874 41.1255C148.632 40.5335 149.012 39.8148 149.012 38.9692C149.012 38.3435 148.818 37.8361 148.43 37.4471C148.042 37.0412 147.528 36.703 146.887 36.4324C146.247 36.1449 145.514 35.8997 144.688 35.6968C143.878 35.4769 143.052 35.2401 142.21 34.9865C141.367 34.7328 140.532 34.4368 139.706 34.0986C138.897 33.7604 138.172 33.3291 137.532 32.8048C136.891 32.2637 136.377 31.6041 135.989 30.8262C135.601 30.0482 135.408 29.0927 135.408 27.9596C135.408 26.6743 135.677 25.4905 136.217 24.4081C136.756 23.3089 137.54 22.3618 138.568 21.5669C139.597 20.7552 140.853 20.1294 142.336 19.6897C143.836 19.2331 145.539 19.0048 147.444 19.0048C147.916 19.0048 148.464 19.0217 149.087 19.0555C149.711 19.0894 150.352 19.1486 151.009 19.2331C151.667 19.3008 152.316 19.3938 152.956 19.5122C153.597 19.6305 154.187 19.7743 154.726 19.9434L153.538 25.0677L153.007 25.3721C152.45 25.1184 151.869 24.8986 151.262 24.7125C150.672 24.5265 150.082 24.3828 149.492 24.2813C148.919 24.1629 148.371 24.0783 147.848 24.0276C147.326 23.96 146.854 23.9261 146.432 23.9261C144.983 23.9261 143.904 24.1967 143.196 24.7379C142.488 25.2791 142.134 25.964 142.134 26.7927C142.134 27.4353 142.328 27.9596 142.715 28.3655C143.12 28.7714 143.642 29.1181 144.283 29.4056C144.924 29.6931 145.648 29.9467 146.458 30.1666C147.284 30.3695 148.126 30.5978 148.986 30.8515C149.846 31.0883 150.68 31.3758 151.49 31.714C152.316 32.0354 153.049 32.4666 153.689 33.0078C154.33 33.532 154.844 34.1832 155.232 34.9611C155.636 35.7221 155.839 36.6692 155.839 37.8023C155.839 39.0538 155.577 40.2376 155.055 41.3538C154.532 42.453 153.765 43.417 152.754 44.2457C151.759 45.0574 150.52 45.7085 149.037 46.199C147.57 46.6725 145.893 46.9093 144.005 46.9093C143.263 46.9093 142.488 46.867 141.679 46.7824C140.886 46.7148 140.085 46.6049 139.276 46.4527C138.467 46.3005 137.666 46.1144 136.874 45.8946C136.082 45.6578 135.323 45.3872 134.598 45.0828L135.787 39.9078Z" fill="#115E59"/>
<path d="M162.11 5.76286H169.569V46.4019H162.11V5.76286ZM179.81 46.4019L170.808 32.3736L180.821 19.6644H187.977L177.989 31.2828L188.685 46.4019H179.81Z" fill="#115E59"/>
<path d="M214.224 37.2949H200.519L197.763 46.4019H191.214L203.68 9.23824H212.606L225.047 46.4019H217.031L214.224 37.2949ZM212.834 32.5765L208.94 19.5883L207.625 14.1342H207.119L205.804 19.5883L201.885 32.5765H212.834Z" fill="#115E59"/>
<path d="M230.585 5.76286H238.044V46.4019H230.585V5.76286Z" fill="#115E59"/>
<path d="M246.363 5.76286H253.822V46.4019H246.363V5.76286Z" fill="#115E59"/>
<path d="M284.57 43.7637C283.744 44.3556 282.876 44.8545 281.966 45.2604C281.056 45.6494 280.137 45.9707 279.21 46.2244C278.283 46.4611 277.364 46.6302 276.453 46.7317C275.543 46.8501 274.675 46.9093 273.849 46.9093C271.826 46.9093 269.98 46.6218 268.311 46.0468C266.642 45.4718 265.21 44.6262 264.013 43.51C262.816 42.3938 261.889 41.0324 261.231 39.4258C260.574 37.8023 260.245 35.9504 260.245 33.8703C260.245 31.5703 260.633 29.507 261.408 27.6806C262.201 25.8372 263.254 24.2728 264.569 22.9875C265.884 21.7022 267.401 20.7214 269.121 20.0449C270.857 19.3515 272.669 19.0048 274.557 19.0048C276.158 19.0048 277.642 19.2585 279.007 19.7658C280.373 20.2732 281.553 21.0342 282.547 22.0489C283.542 23.0467 284.317 24.2897 284.874 25.778C285.43 27.2662 285.708 28.9912 285.708 30.953C285.708 31.528 285.683 32.0861 285.632 32.6273C285.582 33.1515 285.514 33.6335 285.43 34.0732H267.932C267.932 35.3416 268.151 36.4493 268.59 37.3964C269.045 38.3435 269.677 39.1299 270.486 39.7556C271.312 40.3813 272.298 40.8464 273.444 41.1508C274.608 41.4552 275.889 41.6074 277.288 41.6074C277.743 41.6074 278.257 41.5905 278.83 41.5567C279.404 41.5229 280.01 41.4637 280.651 41.3791C281.292 41.2777 281.941 41.1424 282.598 40.9732C283.272 40.8041 283.93 40.5927 284.57 40.3391V43.7637ZM278.881 31.0037C278.881 29.8199 278.746 28.7883 278.476 27.9089C278.207 27.0125 277.836 26.2684 277.364 25.6765C276.892 25.0846 276.335 24.6449 275.695 24.3574C275.054 24.0699 274.363 23.9261 273.621 23.9261C272.795 23.9261 272.037 24.0953 271.346 24.4335C270.655 24.7717 270.056 25.2537 269.55 25.8795C269.045 26.5052 268.649 27.2493 268.362 28.1118C268.075 28.9743 267.932 29.9383 267.932 31.0037H278.881Z" fill="#115E59"/>
<path d="M289.375 19.5122H297.466L302.068 35.7729L303.156 40.9479H303.661L304.749 35.7729L309.351 19.5122H316.001L302.271 59.999H295.62L301.335 46.4019H298.503L289.375 19.5122Z" fill="#115E59"/>
</svg>
